<mxfile host="app.diagrams.net" agent="Mozilla/5.0 (Windows NT 10.0; Win64; x64) AppleWebKit/537.36 (KHTML, like Gecko) Chrome/128.0.0.0 Safari/537.36" version="24.7.7">
  <diagram name="Página-1" id="lIK6jpLpt7kcNoYI4VRR">
    <mxGraphModel dx="1318" dy="588" grid="1" gridSize="10" guides="1" tooltips="1" connect="1" arrows="1" fold="1" page="1" pageScale="1" pageWidth="827" pageHeight="1169" math="0" shadow="0">
      <root>
        <mxCell id="0" />
        <mxCell id="1" parent="0" />
        <mxCell id="elK-LPXNYAYyIuP73Tqf-1" value="" style="rounded=0;whiteSpace=wrap;html=1;" parent="1" vertex="1">
          <mxGeometry x="140" y="120" width="521" height="850" as="geometry" />
        </mxCell>
        <mxCell id="KucXg28reypB-8A7jygx-1" value="Usuario" style="shape=umlActor;verticalLabelPosition=bottom;verticalAlign=top;html=1;outlineConnect=0;" vertex="1" parent="1">
          <mxGeometry x="50" y="515" width="30" height="60" as="geometry" />
        </mxCell>
        <mxCell id="KucXg28reypB-8A7jygx-2" value="Pagina-Software" style="shape=umlActor;verticalLabelPosition=bottom;verticalAlign=top;html=1;outlineConnect=0;" vertex="1" parent="1">
          <mxGeometry x="720" y="525" width="30" height="60" as="geometry" />
        </mxCell>
        <mxCell id="KucXg28reypB-8A7jygx-3" value="inicio de sesion&amp;nbsp;" style="ellipse;whiteSpace=wrap;html=1;" vertex="1" parent="1">
          <mxGeometry x="170" y="530" width="90" height="70" as="geometry" />
        </mxCell>
        <mxCell id="KucXg28reypB-8A7jygx-4" value="registrarse" style="ellipse;whiteSpace=wrap;html=1;" vertex="1" parent="1">
          <mxGeometry x="170" y="630" width="100" height="70" as="geometry" />
        </mxCell>
        <mxCell id="KucXg28reypB-8A7jygx-5" value="recuperar contraseña" style="ellipse;whiteSpace=wrap;html=1;" vertex="1" parent="1">
          <mxGeometry x="290" y="490" width="110" height="70" as="geometry" />
        </mxCell>
        <mxCell id="KucXg28reypB-8A7jygx-6" value="aceptar terminos y condiciones" style="ellipse;whiteSpace=wrap;html=1;" vertex="1" parent="1">
          <mxGeometry x="130" y="390" width="110" height="70" as="geometry" />
        </mxCell>
        <mxCell id="KucXg28reypB-8A7jygx-8" value="enviar correo de recuperar contraseña&amp;nbsp;" style="ellipse;whiteSpace=wrap;html=1;" vertex="1" parent="1">
          <mxGeometry x="413" y="540" width="110" height="70" as="geometry" />
        </mxCell>
        <mxCell id="KucXg28reypB-8A7jygx-9" value="enviar correo de bienvenida a la pagina&amp;nbsp;" style="ellipse;whiteSpace=wrap;html=1;" vertex="1" parent="1">
          <mxGeometry x="470" y="660" width="110" height="70" as="geometry" />
        </mxCell>
        <mxCell id="KucXg28reypB-8A7jygx-11" value="" style="endArrow=none;html=1;rounded=0;entryX=0.441;entryY=0.961;entryDx=0;entryDy=0;entryPerimeter=0;" edge="1" parent="1" target="KucXg28reypB-8A7jygx-6">
          <mxGeometry width="50" height="50" relative="1" as="geometry">
            <mxPoint x="210" y="530" as="sourcePoint" />
            <mxPoint x="230" y="500" as="targetPoint" />
          </mxGeometry>
        </mxCell>
        <mxCell id="KucXg28reypB-8A7jygx-12" value="" style="endArrow=none;html=1;rounded=0;entryX=0;entryY=0.5;entryDx=0;entryDy=0;" edge="1" parent="1" source="KucXg28reypB-8A7jygx-1" target="KucXg28reypB-8A7jygx-3">
          <mxGeometry width="50" height="50" relative="1" as="geometry">
            <mxPoint x="220" y="540" as="sourcePoint" />
            <mxPoint x="249" y="497" as="targetPoint" />
          </mxGeometry>
        </mxCell>
        <mxCell id="KucXg28reypB-8A7jygx-13" value="" style="endArrow=none;html=1;rounded=0;entryX=0.061;entryY=0.331;entryDx=0;entryDy=0;entryPerimeter=0;" edge="1" parent="1" target="KucXg28reypB-8A7jygx-4">
          <mxGeometry width="50" height="50" relative="1" as="geometry">
            <mxPoint x="90" y="566" as="sourcePoint" />
            <mxPoint x="180" y="575" as="targetPoint" />
          </mxGeometry>
        </mxCell>
        <mxCell id="KucXg28reypB-8A7jygx-15" value="&amp;lt;&amp;lt;include&amp;gt;&amp;gt;" style="html=1;verticalAlign=bottom;labelBackgroundColor=none;endArrow=open;endFill=0;dashed=1;rounded=0;entryX=0.5;entryY=1;entryDx=0;entryDy=0;" edge="1" parent="1" target="KucXg28reypB-8A7jygx-5">
          <mxGeometry width="160" relative="1" as="geometry">
            <mxPoint x="260" y="570" as="sourcePoint" />
            <mxPoint x="420" y="570" as="targetPoint" />
          </mxGeometry>
        </mxCell>
        <mxCell id="KucXg28reypB-8A7jygx-18" value="" style="endArrow=none;html=1;rounded=0;exitX=1;exitY=0.5;exitDx=0;exitDy=0;" edge="1" parent="1" source="KucXg28reypB-8A7jygx-8">
          <mxGeometry width="50" height="50" relative="1" as="geometry">
            <mxPoint x="680" y="600" as="sourcePoint" />
            <mxPoint x="720" y="560" as="targetPoint" />
          </mxGeometry>
        </mxCell>
        <mxCell id="KucXg28reypB-8A7jygx-19" value="" style="endArrow=none;html=1;rounded=0;exitX=1;exitY=0.5;exitDx=0;exitDy=0;" edge="1" parent="1" source="KucXg28reypB-8A7jygx-9" target="KucXg28reypB-8A7jygx-2">
          <mxGeometry width="50" height="50" relative="1" as="geometry">
            <mxPoint x="590" y="615" as="sourcePoint" />
            <mxPoint x="740" y="560" as="targetPoint" />
          </mxGeometry>
        </mxCell>
        <mxCell id="KucXg28reypB-8A7jygx-20" value="pagina principal&amp;nbsp;" style="ellipse;whiteSpace=wrap;html=1;" vertex="1" parent="1">
          <mxGeometry x="270" y="385" width="110" height="65" as="geometry" />
        </mxCell>
        <mxCell id="KucXg28reypB-8A7jygx-21" value="" style="endArrow=none;html=1;rounded=0;exitX=1;exitY=0;exitDx=0;exitDy=0;" edge="1" parent="1" source="KucXg28reypB-8A7jygx-3">
          <mxGeometry width="50" height="50" relative="1" as="geometry">
            <mxPoint x="260" y="500" as="sourcePoint" />
            <mxPoint x="310" y="450" as="targetPoint" />
          </mxGeometry>
        </mxCell>
        <mxCell id="KucXg28reypB-8A7jygx-22" value="indice de masa corporal&amp;nbsp;" style="ellipse;whiteSpace=wrap;html=1;" vertex="1" parent="1">
          <mxGeometry x="480" y="445" width="120" height="80" as="geometry" />
        </mxCell>
        <mxCell id="KucXg28reypB-8A7jygx-23" value="" style="endArrow=none;html=1;rounded=0;exitX=0.958;exitY=0.632;exitDx=0;exitDy=0;exitPerimeter=0;" edge="1" parent="1" source="KucXg28reypB-8A7jygx-22">
          <mxGeometry width="50" height="50" relative="1" as="geometry">
            <mxPoint x="590" y="615" as="sourcePoint" />
            <mxPoint x="720" y="550" as="targetPoint" />
          </mxGeometry>
        </mxCell>
        <mxCell id="KucXg28reypB-8A7jygx-24" value="" style="endArrow=none;html=1;rounded=0;entryX=0.017;entryY=0.338;entryDx=0;entryDy=0;entryPerimeter=0;" edge="1" parent="1" target="KucXg28reypB-8A7jygx-22">
          <mxGeometry width="50" height="50" relative="1" as="geometry">
            <mxPoint x="380" y="420" as="sourcePoint" />
            <mxPoint x="430" y="370" as="targetPoint" />
          </mxGeometry>
        </mxCell>
        <mxCell id="KucXg28reypB-8A7jygx-25" value="ver gimnasios" style="ellipse;whiteSpace=wrap;html=1;" vertex="1" parent="1">
          <mxGeometry x="200" y="270" width="90" height="50" as="geometry" />
        </mxCell>
        <mxCell id="KucXg28reypB-8A7jygx-26" value="crear calendario" style="ellipse;whiteSpace=wrap;html=1;" vertex="1" parent="1">
          <mxGeometry x="300" y="300" width="90" height="50" as="geometry" />
        </mxCell>
        <mxCell id="KucXg28reypB-8A7jygx-27" value="" style="endArrow=none;html=1;rounded=0;exitX=0.5;exitY=0;exitDx=0;exitDy=0;" edge="1" parent="1" source="KucXg28reypB-8A7jygx-20">
          <mxGeometry width="50" height="50" relative="1" as="geometry">
            <mxPoint x="300" y="400" as="sourcePoint" />
            <mxPoint x="350" y="350" as="targetPoint" />
          </mxGeometry>
        </mxCell>
        <mxCell id="KucXg28reypB-8A7jygx-28" value="" style="endArrow=none;html=1;rounded=0;" edge="1" parent="1" source="KucXg28reypB-8A7jygx-20">
          <mxGeometry width="50" height="50" relative="1" as="geometry">
            <mxPoint x="200" y="370" as="sourcePoint" />
            <mxPoint x="250" y="320" as="targetPoint" />
          </mxGeometry>
        </mxCell>
        <mxCell id="KucXg28reypB-8A7jygx-29" value="gimnasios disponibles&amp;nbsp;" style="ellipse;whiteSpace=wrap;html=1;" vertex="1" parent="1">
          <mxGeometry x="150" y="210" width="90" height="50" as="geometry" />
        </mxCell>
        <mxCell id="KucXg28reypB-8A7jygx-30" value="" style="endArrow=none;html=1;rounded=0;entryX=0.5;entryY=1;entryDx=0;entryDy=0;" edge="1" parent="1" source="KucXg28reypB-8A7jygx-25" target="KucXg28reypB-8A7jygx-29">
          <mxGeometry width="50" height="50" relative="1" as="geometry">
            <mxPoint x="150" y="320" as="sourcePoint" />
            <mxPoint x="200" y="270" as="targetPoint" />
          </mxGeometry>
        </mxCell>
        <mxCell id="KucXg28reypB-8A7jygx-31" value="mostrar calendario" style="ellipse;whiteSpace=wrap;html=1;" vertex="1" parent="1">
          <mxGeometry x="380" y="240" width="90" height="50" as="geometry" />
        </mxCell>
        <mxCell id="KucXg28reypB-8A7jygx-32" value="" style="endArrow=none;html=1;rounded=0;exitX=0.754;exitY=0.052;exitDx=0;exitDy=0;exitPerimeter=0;" edge="1" parent="1" source="KucXg28reypB-8A7jygx-26">
          <mxGeometry width="50" height="50" relative="1" as="geometry">
            <mxPoint x="370" y="340" as="sourcePoint" />
            <mxPoint x="420" y="290" as="targetPoint" />
          </mxGeometry>
        </mxCell>
        <mxCell id="KucXg28reypB-8A7jygx-33" value="" style="endArrow=none;html=1;rounded=0;exitX=0.028;exitY=0.659;exitDx=0;exitDy=0;exitPerimeter=0;" edge="1" parent="1" source="KucXg28reypB-8A7jygx-8">
          <mxGeometry width="50" height="50" relative="1" as="geometry">
            <mxPoint x="350" y="590" as="sourcePoint" />
            <mxPoint x="400" y="530" as="targetPoint" />
          </mxGeometry>
        </mxCell>
        <mxCell id="KucXg28reypB-8A7jygx-34" value="mostrar interfaz principal" style="ellipse;whiteSpace=wrap;html=1;" vertex="1" parent="1">
          <mxGeometry x="490" y="350" width="100" height="60" as="geometry" />
        </mxCell>
        <mxCell id="KucXg28reypB-8A7jygx-35" value="" style="endArrow=none;html=1;rounded=0;exitX=0;exitY=0.3333333333333333;exitDx=0;exitDy=0;exitPerimeter=0;entryX=0.5;entryY=1;entryDx=0;entryDy=0;" edge="1" parent="1" source="KucXg28reypB-8A7jygx-2" target="KucXg28reypB-8A7jygx-34">
          <mxGeometry width="50" height="50" relative="1" as="geometry">
            <mxPoint x="490" y="450" as="sourcePoint" />
            <mxPoint x="540" y="400" as="targetPoint" />
          </mxGeometry>
        </mxCell>
        <mxCell id="KucXg28reypB-8A7jygx-36" value="" style="endArrow=none;html=1;rounded=0;exitX=1;exitY=0.5;exitDx=0;exitDy=0;" edge="1" parent="1" source="KucXg28reypB-8A7jygx-20">
          <mxGeometry width="50" height="50" relative="1" as="geometry">
            <mxPoint x="440" y="440" as="sourcePoint" />
            <mxPoint x="490" y="390" as="targetPoint" />
          </mxGeometry>
        </mxCell>
      </root>
    </mxGraphModel>
  </diagram>
</mxfile>
